<svg xmlns="http://www.w3.org/2000/svg" role="img" aria-labelledby="title desc" width="760" height="420" viewBox="0 0 760 420">
<title id="title">Data coverage</title>
<desc id="desc">Complete country-year observations retained after transition filtering</desc>
<rect width="760" height="420" rx="18" fill="#f4efe3"/>
<text x="42" y="42" font-family="Georgia, serif" font-size="22" font-weight="bold" fill="#142936">Data coverage</text>
<text x="42" y="66" font-family="Georgia, serif" font-size="13" fill="#667277">Complete country-year observations retained after transition filtering</text>
<rect x="65.0" y="100.0" width="56.9" height="240.0" rx="4" fill="#142936"/>
<text x="93.5" y="93.0" text-anchor="middle" font-family="Georgia, serif" font-size="11" fill="#142936">28</text>
<text x="93.5" y="362" text-anchor="middle" font-family="Georgia, serif" font-size="10" fill="#667277">2015</text>
<rect x="130.9" y="100.0" width="56.9" height="240.0" rx="4" fill="#142936"/>
<text x="159.3" y="93.0" text-anchor="middle" font-family="Georgia, serif" font-size="11" fill="#142936">28</text>
<text x="159.3" y="362" text-anchor="middle" font-family="Georgia, serif" font-size="10" fill="#667277">2016</text>
<rect x="196.8" y="100.0" width="56.9" height="240.0" rx="4" fill="#142936"/>
<text x="225.2" y="93.0" text-anchor="middle" font-family="Georgia, serif" font-size="11" fill="#142936">28</text>
<text x="225.2" y="362" text-anchor="middle" font-family="Georgia, serif" font-size="10" fill="#667277">2017</text>
<rect x="262.7" y="100.0" width="56.9" height="240.0" rx="4" fill="#142936"/>
<text x="291.2" y="93.0" text-anchor="middle" font-family="Georgia, serif" font-size="11" fill="#142936">28</text>
<text x="291.2" y="362" text-anchor="middle" font-family="Georgia, serif" font-size="10" fill="#667277">2018</text>
<rect x="328.6" y="100.0" width="56.9" height="240.0" rx="4" fill="#142936"/>
<text x="357.1" y="93.0" text-anchor="middle" font-family="Georgia, serif" font-size="11" fill="#142936">28</text>
<text x="357.1" y="362" text-anchor="middle" font-family="Georgia, serif" font-size="10" fill="#667277">2019</text>
<rect x="394.5" y="100.0" width="56.9" height="240.0" rx="4" fill="#a44a2d"/>
<text x="422.9" y="93.0" text-anchor="middle" font-family="Georgia, serif" font-size="11" fill="#142936">28</text>
<text x="422.9" y="362" text-anchor="middle" font-family="Georgia, serif" font-size="10" fill="#667277">2020</text>
<rect x="460.4" y="100.0" width="56.9" height="240.0" rx="4" fill="#a44a2d"/>
<text x="488.9" y="93.0" text-anchor="middle" font-family="Georgia, serif" font-size="11" fill="#142936">28</text>
<text x="488.9" y="362" text-anchor="middle" font-family="Georgia, serif" font-size="10" fill="#667277">2021</text>
<rect x="526.3" y="100.0" width="56.9" height="240.0" rx="4" fill="#a44a2d"/>
<text x="554.8" y="93.0" text-anchor="middle" font-family="Georgia, serif" font-size="11" fill="#142936">28</text>
<text x="554.8" y="362" text-anchor="middle" font-family="Georgia, serif" font-size="10" fill="#667277">2022</text>
<rect x="592.2" y="108.6" width="56.9" height="231.4" rx="4" fill="#a44a2d"/>
<text x="620.7" y="101.6" text-anchor="middle" font-family="Georgia, serif" font-size="11" fill="#142936">27</text>
<text x="620.7" y="362" text-anchor="middle" font-family="Georgia, serif" font-size="10" fill="#667277">2023</text>
<rect x="658.1" y="100.0" width="56.9" height="240.0" rx="4" fill="#a44a2d"/>
<text x="686.6" y="93.0" text-anchor="middle" font-family="Georgia, serif" font-size="11" fill="#142936">28</text>
<text x="686.6" y="362" text-anchor="middle" font-family="Georgia, serif" font-size="10" fill="#667277">2024</text>
<rect x="450" y="378" width="12" height="12" rx="2" fill="#142936"/><text x="470" y="389" font-family="Georgia, serif" font-size="12" fill="#142936">Training</text>
<rect x="550" y="378" width="12" height="12" rx="2" fill="#a44a2d"/><text x="570" y="389" font-family="Georgia, serif" font-size="12" fill="#142936">Evaluation</text>
</svg>
