<svg xmlns="http://www.w3.org/2000/svg" role="img" aria-labelledby="title desc" width="760" height="420" viewBox="0 0 760 420">
<title id="title">Performance by outcome year</title>
<desc id="desc">Mean adjusted coverage for exact policies (%)</desc>
<rect width="760" height="420" rx="18" fill="#f4efe3"/>
<text x="42" y="42" font-family="Georgia, serif" font-size="22" font-weight="bold" fill="#142936">Performance by outcome year</text>
<text x="42" y="66" font-family="Georgia, serif" font-size="13" fill="#667277">Mean adjusted coverage for exact policies (%)</text>
<line x1="70" y1="345.0" x2="710" y2="345.0" stroke="#d9d0bf"/>
<text x="60" y="349.0" text-anchor="end" font-family="Georgia, serif" font-size="11" fill="#667277">89.5</text>
<line x1="70" y1="282.5" x2="710" y2="282.5" stroke="#d9d0bf"/>
<text x="60" y="286.5" text-anchor="end" font-family="Georgia, serif" font-size="11" fill="#667277">89.9</text>
<line x1="70" y1="220.0" x2="710" y2="220.0" stroke="#d9d0bf"/>
<text x="60" y="224.0" text-anchor="end" font-family="Georgia, serif" font-size="11" fill="#667277">90.2</text>
<line x1="70" y1="157.5" x2="710" y2="157.5" stroke="#d9d0bf"/>
<text x="60" y="161.5" text-anchor="end" font-family="Georgia, serif" font-size="11" fill="#667277">90.6</text>
<line x1="70" y1="95.0" x2="710" y2="95.0" stroke="#d9d0bf"/>
<text x="60" y="99.0" text-anchor="end" font-family="Georgia, serif" font-size="11" fill="#667277">91.0</text>
<text x="70.0" y="369" text-anchor="middle" font-family="Georgia, serif" font-size="11" fill="#667277">2021</text>
<text x="283.3" y="369" text-anchor="middle" font-family="Georgia, serif" font-size="11" fill="#667277">2022</text>
<text x="496.7" y="369" text-anchor="middle" font-family="Georgia, serif" font-size="11" fill="#667277">2023</text>
<text x="710.0" y="369" text-anchor="middle" font-family="Georgia, serif" font-size="11" fill="#667277">2024</text>
<polyline points="70.0,170.1 283.3,267.2 496.7,235.4 710.0,290.5" fill="none" stroke="#142936" stroke-width="3" stroke-linecap="round" stroke-linejoin="round"/>
<circle cx="70.0" cy="170.1" r="4" fill="#142936" stroke="#f4efe3" stroke-width="2"/>
<circle cx="283.3" cy="267.2" r="4" fill="#142936" stroke="#f4efe3" stroke-width="2"/>
<circle cx="496.7" cy="235.4" r="4" fill="#142936" stroke="#f4efe3" stroke-width="2"/>
<circle cx="710.0" cy="290.5" r="4" fill="#142936" stroke="#f4efe3" stroke-width="2"/>
<line x1="72" y1="388" x2="96" y2="388" stroke="#142936" stroke-width="3"/>
<text x="104" y="392" font-family="Georgia, serif" font-size="12" fill="#142936">Classical adjusted coverage</text>
<polyline points="70.0,288.9 283.3,294.8 496.7,306.5 710.0,315.3" fill="none" stroke="#a44a2d" stroke-width="3" stroke-linecap="round" stroke-linejoin="round"/>
<circle cx="70.0" cy="288.9" r="4" fill="#a44a2d" stroke="#f4efe3" stroke-width="2"/>
<circle cx="283.3" cy="294.8" r="4" fill="#a44a2d" stroke="#f4efe3" stroke-width="2"/>
<circle cx="496.7" cy="306.5" r="4" fill="#a44a2d" stroke="#f4efe3" stroke-width="2"/>
<circle cx="710.0" cy="315.3" r="4" fill="#a44a2d" stroke="#f4efe3" stroke-width="2"/>
<line x1="277" y1="388" x2="301" y2="388" stroke="#a44a2d" stroke-width="3"/>
<text x="309" y="392" font-family="Georgia, serif" font-size="12" fill="#142936">Robust adjusted coverage</text>
</svg>
