<svg xmlns="http://www.w3.org/2000/svg" role="img" aria-labelledby="title desc" width="760" height="420" viewBox="0 0 760 420">
<title id="title">Policy by resistance state</title>
<desc id="desc">Exact Bellman actions; robust optimization selected carbapenems in every state</desc>
<rect width="760" height="420" rx="18" fill="#f4efe3"/>
<text x="42" y="42" font-family="Georgia, serif" font-size="22" font-weight="bold" fill="#142936">Policy by resistance state</text>
<text x="42" y="66" font-family="Georgia, serif" font-size="13" fill="#667277">Exact Bellman actions; robust optimization selected carbapenems in every state</text>
<text x="42" y="110" font-family="Georgia, serif" font-size="14" font-weight="bold" fill="#142936">Classical</text>
<rect x="42" y="130" width="74" height="72" rx="9" fill="#2f6f6a"/>
<text x="79" y="155" text-anchor="middle" font-family="Georgia, serif" font-size="11" fill="white">state 000</text>
<text x="79" y="181" text-anchor="middle" font-family="Georgia, serif" font-size="13" font-weight="bold" fill="white">Carbapenem</text>
<rect x="128" y="130" width="74" height="72" rx="9" fill="#a44a2d"/>
<text x="165" y="155" text-anchor="middle" font-family="Georgia, serif" font-size="11" fill="white">state 001</text>
<text x="165" y="181" text-anchor="middle" font-family="Georgia, serif" font-size="13" font-weight="bold" fill="white">3GC</text>
<rect x="214" y="130" width="74" height="72" rx="9" fill="#2f6f6a"/>
<text x="251" y="155" text-anchor="middle" font-family="Georgia, serif" font-size="11" fill="white">state 010</text>
<text x="251" y="181" text-anchor="middle" font-family="Georgia, serif" font-size="13" font-weight="bold" fill="white">Carbapenem</text>
<rect x="300" y="130" width="74" height="72" rx="9" fill="#2f6f6a"/>
<text x="337" y="155" text-anchor="middle" font-family="Georgia, serif" font-size="11" fill="white">state 011</text>
<text x="337" y="181" text-anchor="middle" font-family="Georgia, serif" font-size="13" font-weight="bold" fill="white">Carbapenem</text>
<rect x="386" y="130" width="74" height="72" rx="9" fill="#2f6f6a"/>
<text x="423" y="155" text-anchor="middle" font-family="Georgia, serif" font-size="11" fill="white">state 100</text>
<text x="423" y="181" text-anchor="middle" font-family="Georgia, serif" font-size="13" font-weight="bold" fill="white">Carbapenem</text>
<rect x="472" y="130" width="74" height="72" rx="9" fill="#2f6f6a"/>
<text x="509" y="155" text-anchor="middle" font-family="Georgia, serif" font-size="11" fill="white">state 101</text>
<text x="509" y="181" text-anchor="middle" font-family="Georgia, serif" font-size="13" font-weight="bold" fill="white">Carbapenem</text>
<rect x="558" y="130" width="74" height="72" rx="9" fill="#2f6f6a"/>
<text x="595" y="155" text-anchor="middle" font-family="Georgia, serif" font-size="11" fill="white">state 110</text>
<text x="595" y="181" text-anchor="middle" font-family="Georgia, serif" font-size="13" font-weight="bold" fill="white">Carbapenem</text>
<rect x="644" y="130" width="74" height="72" rx="9" fill="#2f6f6a"/>
<text x="681" y="155" text-anchor="middle" font-family="Georgia, serif" font-size="11" fill="white">state 111</text>
<text x="681" y="181" text-anchor="middle" font-family="Georgia, serif" font-size="13" font-weight="bold" fill="white">Carbapenem</text>
<text x="42" y="225" font-family="Georgia, serif" font-size="14" font-weight="bold" fill="#142936">Robust at epsilon-star</text>
<rect x="42" y="245" width="74" height="72" rx="9" fill="#2f6f6a"/>
<text x="79" y="270" text-anchor="middle" font-family="Georgia, serif" font-size="11" fill="white">state 000</text>
<text x="79" y="296" text-anchor="middle" font-family="Georgia, serif" font-size="13" font-weight="bold" fill="white">Carbapenem</text>
<rect x="128" y="245" width="74" height="72" rx="9" fill="#2f6f6a"/>
<text x="165" y="270" text-anchor="middle" font-family="Georgia, serif" font-size="11" fill="white">state 001</text>
<text x="165" y="296" text-anchor="middle" font-family="Georgia, serif" font-size="13" font-weight="bold" fill="white">Carbapenem</text>
<rect x="214" y="245" width="74" height="72" rx="9" fill="#2f6f6a"/>
<text x="251" y="270" text-anchor="middle" font-family="Georgia, serif" font-size="11" fill="white">state 010</text>
<text x="251" y="296" text-anchor="middle" font-family="Georgia, serif" font-size="13" font-weight="bold" fill="white">Carbapenem</text>
<rect x="300" y="245" width="74" height="72" rx="9" fill="#2f6f6a"/>
<text x="337" y="270" text-anchor="middle" font-family="Georgia, serif" font-size="11" fill="white">state 011</text>
<text x="337" y="296" text-anchor="middle" font-family="Georgia, serif" font-size="13" font-weight="bold" fill="white">Carbapenem</text>
<rect x="386" y="245" width="74" height="72" rx="9" fill="#2f6f6a"/>
<text x="423" y="270" text-anchor="middle" font-family="Georgia, serif" font-size="11" fill="white">state 100</text>
<text x="423" y="296" text-anchor="middle" font-family="Georgia, serif" font-size="13" font-weight="bold" fill="white">Carbapenem</text>
<rect x="472" y="245" width="74" height="72" rx="9" fill="#2f6f6a"/>
<text x="509" y="270" text-anchor="middle" font-family="Georgia, serif" font-size="11" fill="white">state 101</text>
<text x="509" y="296" text-anchor="middle" font-family="Georgia, serif" font-size="13" font-weight="bold" fill="white">Carbapenem</text>
<rect x="558" y="245" width="74" height="72" rx="9" fill="#2f6f6a"/>
<text x="595" y="270" text-anchor="middle" font-family="Georgia, serif" font-size="11" fill="white">state 110</text>
<text x="595" y="296" text-anchor="middle" font-family="Georgia, serif" font-size="13" font-weight="bold" fill="white">Carbapenem</text>
<rect x="644" y="245" width="74" height="72" rx="9" fill="#2f6f6a"/>
<text x="681" y="270" text-anchor="middle" font-family="Georgia, serif" font-size="11" fill="white">state 111</text>
<text x="681" y="296" text-anchor="middle" font-family="Georgia, serif" font-size="13" font-weight="bold" fill="white">Carbapenem</text>
<text x="42" y="382" font-family="Georgia, serif" font-size="12" fill="#667277">State bits: 3GC resistance / fluoroquinolone resistance / carbapenem resistance</text>
</svg>
