<svg xmlns="http://www.w3.org/2000/svg" role="img" aria-labelledby="title desc" width="760" height="420" viewBox="0 0 760 420">
<title id="title">Resistance trends</title>
<desc id="desc">Equal-country mean resistance among eligible EARS-Net country-years (%)</desc>
<rect width="760" height="420" rx="18" fill="#f4efe3"/>
<text x="42" y="42" font-family="Georgia, serif" font-size="22" font-weight="bold" fill="#142936">Resistance trends</text>
<text x="42" y="66" font-family="Georgia, serif" font-size="13" fill="#667277">Equal-country mean resistance among eligible EARS-Net country-years (%)</text>
<line x1="70" y1="345.0" x2="710" y2="345.0" stroke="#d9d0bf"/>
<text x="60" y="349.0" text-anchor="end" font-family="Georgia, serif" font-size="11" fill="#667277">0</text>
<line x1="70" y1="282.5" x2="710" y2="282.5" stroke="#d9d0bf"/>
<text x="60" y="286.5" text-anchor="end" font-family="Georgia, serif" font-size="11" fill="#667277">8</text>
<line x1="70" y1="220.0" x2="710" y2="220.0" stroke="#d9d0bf"/>
<text x="60" y="224.0" text-anchor="end" font-family="Georgia, serif" font-size="11" fill="#667277">15</text>
<line x1="70" y1="157.5" x2="710" y2="157.5" stroke="#d9d0bf"/>
<text x="60" y="161.5" text-anchor="end" font-family="Georgia, serif" font-size="11" fill="#667277">22</text>
<line x1="70" y1="95.0" x2="710" y2="95.0" stroke="#d9d0bf"/>
<text x="60" y="99.0" text-anchor="end" font-family="Georgia, serif" font-size="11" fill="#667277">30</text>
<text x="70.0" y="369" text-anchor="middle" font-family="Georgia, serif" font-size="11" fill="#667277">2015</text>
<text x="141.1" y="369" text-anchor="middle" font-family="Georgia, serif" font-size="11" fill="#667277">2016</text>
<text x="212.2" y="369" text-anchor="middle" font-family="Georgia, serif" font-size="11" fill="#667277">2017</text>
<text x="283.3" y="369" text-anchor="middle" font-family="Georgia, serif" font-size="11" fill="#667277">2018</text>
<text x="354.4" y="369" text-anchor="middle" font-family="Georgia, serif" font-size="11" fill="#667277">2019</text>
<text x="425.6" y="369" text-anchor="middle" font-family="Georgia, serif" font-size="11" fill="#667277">2020</text>
<text x="496.7" y="369" text-anchor="middle" font-family="Georgia, serif" font-size="11" fill="#667277">2021</text>
<text x="567.8" y="369" text-anchor="middle" font-family="Georgia, serif" font-size="11" fill="#667277">2022</text>
<text x="638.9" y="369" text-anchor="middle" font-family="Georgia, serif" font-size="11" fill="#667277">2023</text>
<text x="710.0" y="369" text-anchor="middle" font-family="Georgia, serif" font-size="11" fill="#667277">2024</text>
<polyline points="70.0,218.7 141.1,213.9 212.2,214.7 283.3,211.3 354.4,218.2 425.6,217.0 496.7,223.9 567.8,219.7 638.9,211.4 710.0,202.6" fill="none" stroke="#a44a2d" stroke-width="3" stroke-linecap="round" stroke-linejoin="round"/>
<circle cx="70.0" cy="218.7" r="4" fill="#a44a2d" stroke="#f4efe3" stroke-width="2"/>
<circle cx="141.1" cy="213.9" r="4" fill="#a44a2d" stroke="#f4efe3" stroke-width="2"/>
<circle cx="212.2" cy="214.7" r="4" fill="#a44a2d" stroke="#f4efe3" stroke-width="2"/>
<circle cx="283.3" cy="211.3" r="4" fill="#a44a2d" stroke="#f4efe3" stroke-width="2"/>
<circle cx="354.4" cy="218.2" r="4" fill="#a44a2d" stroke="#f4efe3" stroke-width="2"/>
<circle cx="425.6" cy="217.0" r="4" fill="#a44a2d" stroke="#f4efe3" stroke-width="2"/>
<circle cx="496.7" cy="223.9" r="4" fill="#a44a2d" stroke="#f4efe3" stroke-width="2"/>
<circle cx="567.8" cy="219.7" r="4" fill="#a44a2d" stroke="#f4efe3" stroke-width="2"/>
<circle cx="638.9" cy="211.4" r="4" fill="#a44a2d" stroke="#f4efe3" stroke-width="2"/>
<circle cx="710.0" cy="202.6" r="4" fill="#a44a2d" stroke="#f4efe3" stroke-width="2"/>
<line x1="72" y1="388" x2="96" y2="388" stroke="#a44a2d" stroke-width="3"/>
<text x="104" y="392" font-family="Georgia, serif" font-size="12" fill="#142936">Third-generation cephalosporins</text>
<polyline points="70.0,133.4 141.1,126.7 212.2,122.5 283.3,127.9 354.4,142.8 425.6,145.9 496.7,160.0 567.8,159.5 638.9,155.4 710.0,153.5" fill="none" stroke="#c6923d" stroke-width="3" stroke-linecap="round" stroke-linejoin="round"/>
<circle cx="70.0" cy="133.4" r="4" fill="#c6923d" stroke="#f4efe3" stroke-width="2"/>
<circle cx="141.1" cy="126.7" r="4" fill="#c6923d" stroke="#f4efe3" stroke-width="2"/>
<circle cx="212.2" cy="122.5" r="4" fill="#c6923d" stroke="#f4efe3" stroke-width="2"/>
<circle cx="283.3" cy="127.9" r="4" fill="#c6923d" stroke="#f4efe3" stroke-width="2"/>
<circle cx="354.4" cy="142.8" r="4" fill="#c6923d" stroke="#f4efe3" stroke-width="2"/>
<circle cx="425.6" cy="145.9" r="4" fill="#c6923d" stroke="#f4efe3" stroke-width="2"/>
<circle cx="496.7" cy="160.0" r="4" fill="#c6923d" stroke="#f4efe3" stroke-width="2"/>
<circle cx="567.8" cy="159.5" r="4" fill="#c6923d" stroke="#f4efe3" stroke-width="2"/>
<circle cx="638.9" cy="155.4" r="4" fill="#c6923d" stroke="#f4efe3" stroke-width="2"/>
<circle cx="710.0" cy="153.5" r="4" fill="#c6923d" stroke="#f4efe3" stroke-width="2"/>
<line x1="277" y1="388" x2="301" y2="388" stroke="#c6923d" stroke-width="3"/>
<text x="309" y="392" font-family="Georgia, serif" font-size="12" fill="#142936">Fluoroquinolones</text>
<polyline points="70.0,343.9 141.1,344.0 212.2,343.8 283.3,343.3 354.4,343.4 425.6,343.9 496.7,343.6 567.8,343.3 638.9,342.8 710.0,342.4" fill="none" stroke="#2f6f6a" stroke-width="3" stroke-linecap="round" stroke-linejoin="round"/>
<circle cx="70.0" cy="343.9" r="4" fill="#2f6f6a" stroke="#f4efe3" stroke-width="2"/>
<circle cx="141.1" cy="344.0" r="4" fill="#2f6f6a" stroke="#f4efe3" stroke-width="2"/>
<circle cx="212.2" cy="343.8" r="4" fill="#2f6f6a" stroke="#f4efe3" stroke-width="2"/>
<circle cx="283.3" cy="343.3" r="4" fill="#2f6f6a" stroke="#f4efe3" stroke-width="2"/>
<circle cx="354.4" cy="343.4" r="4" fill="#2f6f6a" stroke="#f4efe3" stroke-width="2"/>
<circle cx="425.6" cy="343.9" r="4" fill="#2f6f6a" stroke="#f4efe3" stroke-width="2"/>
<circle cx="496.7" cy="343.6" r="4" fill="#2f6f6a" stroke="#f4efe3" stroke-width="2"/>
<circle cx="567.8" cy="343.3" r="4" fill="#2f6f6a" stroke="#f4efe3" stroke-width="2"/>
<circle cx="638.9" cy="342.8" r="4" fill="#2f6f6a" stroke="#f4efe3" stroke-width="2"/>
<circle cx="710.0" cy="342.4" r="4" fill="#2f6f6a" stroke="#f4efe3" stroke-width="2"/>
<line x1="482" y1="388" x2="506" y2="388" stroke="#2f6f6a" stroke-width="3"/>
<text x="514" y="392" font-family="Georgia, serif" font-size="12" fill="#142936">Carbapenems</text>
</svg>
