<svg xmlns="http://www.w3.org/2000/svg" role="img" aria-labelledby="title desc" width="760" height="420" viewBox="0 0 760 420">
<title id="title">Historical Wasserstein drift</title>
<desc id="desc">Annual W1 distance; median calibration radius = 0.0476</desc>
<rect width="760" height="420" rx="18" fill="#f4efe3"/>
<text x="42" y="42" font-family="Georgia, serif" font-size="22" font-weight="bold" fill="#142936">Historical Wasserstein drift</text>
<text x="42" y="66" font-family="Georgia, serif" font-size="13" fill="#667277">Annual W1 distance; median calibration radius = 0.0476</text>
<line x1="70" y1="345.0" x2="710" y2="345.0" stroke="#d9d0bf"/>
<text x="60" y="349.0" text-anchor="end" font-family="Georgia, serif" font-size="11" fill="#667277">0.000</text>
<line x1="70" y1="282.5" x2="710" y2="282.5" stroke="#d9d0bf"/>
<text x="60" y="286.5" text-anchor="end" font-family="Georgia, serif" font-size="11" fill="#667277">0.026</text>
<line x1="70" y1="220.0" x2="710" y2="220.0" stroke="#d9d0bf"/>
<text x="60" y="224.0" text-anchor="end" font-family="Georgia, serif" font-size="11" fill="#667277">0.052</text>
<line x1="70" y1="157.5" x2="710" y2="157.5" stroke="#d9d0bf"/>
<text x="60" y="161.5" text-anchor="end" font-family="Georgia, serif" font-size="11" fill="#667277">0.079</text>
<line x1="70" y1="95.0" x2="710" y2="95.0" stroke="#d9d0bf"/>
<text x="60" y="99.0" text-anchor="end" font-family="Georgia, serif" font-size="11" fill="#667277">0.105</text>
<text x="70.0" y="369" text-anchor="middle" font-family="Georgia, serif" font-size="11" fill="#667277">2016</text>
<text x="283.3" y="369" text-anchor="middle" font-family="Georgia, serif" font-size="11" fill="#667277">2017</text>
<text x="496.7" y="369" text-anchor="middle" font-family="Georgia, serif" font-size="11" fill="#667277">2018</text>
<text x="710.0" y="369" text-anchor="middle" font-family="Georgia, serif" font-size="11" fill="#667277">2019</text>
<polyline points="70.0,117.7 283.3,259.8 496.7,203.0 710.0,316.6" fill="none" stroke="#a44a2d" stroke-width="3" stroke-linecap="round" stroke-linejoin="round"/>
<circle cx="70.0" cy="117.7" r="4" fill="#a44a2d" stroke="#f4efe3" stroke-width="2"/>
<circle cx="283.3" cy="259.8" r="4" fill="#a44a2d" stroke="#f4efe3" stroke-width="2"/>
<circle cx="496.7" cy="203.0" r="4" fill="#a44a2d" stroke="#f4efe3" stroke-width="2"/>
<circle cx="710.0" cy="316.6" r="4" fill="#a44a2d" stroke="#f4efe3" stroke-width="2"/>
<line x1="72" y1="388" x2="96" y2="388" stroke="#a44a2d" stroke-width="3"/>
<text x="104" y="392" font-family="Georgia, serif" font-size="12" fill="#142936">Observed annual distance</text>
<line x1="70" y1="231.4" x2="710" y2="231.4" stroke="#2f6f6a" stroke-width="2" stroke-dasharray="7 6"/><text x="708" y="108" text-anchor="end" font-family="Georgia, serif" font-size="11" fill="#2f6f6a">epsilon-star</text></svg>
